<svg width="6" height="9" viewBox="0 0 6 9" fill="none" xmlns="http://www.w3.org/2000/svg">
<path d="M4.95899 3.77983L1.42566 0.246499C1.34819 0.168392 1.25602 0.106396 1.15447 0.0640889C1.05293 0.0217817 0.944004 0 0.833994 0C0.723984 0 0.615063 0.0217817 0.513513 0.0640889C0.411964 0.106396 0.319796 0.168392 0.242327 0.246499C0.0871179 0.402634 0 0.613844 0 0.833998C0 1.05415 0.0871179 1.26536 0.242327 1.4215L3.19233 4.3715L0.242327 7.3215C0.0871179 7.47763 0 7.68884 0 7.909C0 8.12915 0.0871179 8.34036 0.242327 8.4965C0.320194 8.57373 0.412541 8.63484 0.514072 8.67631C0.615603 8.71778 0.724322 8.7388 0.833994 8.73816C0.943666 8.7388 1.05238 8.71778 1.15392 8.67631C1.25545 8.63484 1.34779 8.57373 1.42566 8.4965L4.95899 4.96316C5.0371 4.8857 5.0991 4.79353 5.1414 4.69198C5.18371 4.59043 5.20549 4.48151 5.20549 4.3715C5.20549 4.26149 5.18371 4.15257 5.1414 4.05102C5.0991 3.94947 5.0371 3.8573 4.95899 3.77983Z" fill="#7E7D88"/>
</svg>
