<svg width="18" height="20" viewBox="0 0 18 20" fill="none" xmlns="http://www.w3.org/2000/svg">
<g clip-path="url(#clip0_10680_3510)">
<path d="M16.2891 -0.0439453C16.817 -0.0439453 17.2559 0.10918 17.5635 0.385742C17.8714 0.662722 18.0429 1.05945 18.043 1.53809V15.6162C18.043 15.6427 18.0401 15.6684 18.0371 15.6934C18.047 16.4402 18.0602 17.1882 18.0498 17.9365L18.0303 18.6953C17.9957 19.467 17.2447 20.026 16.3691 20.0322H1.7041C0.835337 20.0322 0.170028 19.5885 -0.00878906 18.8604L-0.0292969 18.7559C-0.0438942 18.6515 -0.0429688 18.5464 -0.0429688 18.4492C-0.0429688 13.7747 -0.0432001 9.09436 -0.0498047 4.41992V4.41895C-0.0497045 4.16026 0.0428211 3.96883 0.237305 3.79395L2.24023 2.00977C2.90569 1.4121 3.56949 0.811906 4.2334 0.211914C4.42783 0.0310812 4.63849 -0.0497657 4.9209 -0.0498047C8.71237 -0.0438648 12.4975 -0.0439453 16.2891 -0.0439453ZM5.43164 1.00781C5.40729 1.00972 5.37884 1.01217 5.34766 1.01465V3.25C5.34415 3.72023 5.16681 4.11235 4.85742 4.38672C4.54853 4.66064 4.11189 4.81341 3.59375 4.81348H1.14258C1.14219 4.81351 1.14132 4.81419 1.13965 4.81445C1.13663 4.81495 1.13217 4.81599 1.12598 4.81738C1.12065 4.81858 1.11407 4.8195 1.10645 4.82129V18.4141C1.10645 18.6454 1.14783 18.7814 1.23633 18.8623C1.32624 18.9444 1.47787 18.9814 1.73047 18.9814H16.2695C16.5142 18.9814 16.6645 18.9417 16.7549 18.8594C16.8439 18.7781 16.8867 18.6442 16.8867 18.4258V15.7529C16.8867 15.7058 16.8914 15.6608 16.8994 15.6182C16.8968 15.5962 16.8947 15.5747 16.8936 15.5537V15.5518C16.8803 14.982 16.8867 2.12985 16.8867 1.5625C16.8867 1.34828 16.8413 1.21428 16.749 1.13184C16.6551 1.048 16.5004 1.00586 16.2559 1.00586H5.52344C5.49854 1.00342 5.46907 1.00489 5.43164 1.00781ZM2.0127 3.75781C2.21719 3.75812 2.42165 3.75945 2.62598 3.76074C2.86047 3.76223 3.09482 3.76367 3.3291 3.76367C3.53211 3.76367 3.68651 3.75903 3.80469 3.74121C3.92292 3.72336 3.99878 3.69273 4.0498 3.64746C4.1 3.6029 4.13276 3.53779 4.15234 3.43555C4.17208 3.33241 4.17773 3.19715 4.17773 3.01758V1.81055C3.44853 2.46628 2.7305 3.11233 2.0127 3.75781Z" fill="#A9A9B0" stroke="#A9A9B0" stroke-width="0.1"/>
<path d="M7.92001 11.6063C7.74166 11.7785 7.58973 11.9389 7.41799 12.0874C6.67157 12.7586 5.92515 13.4358 5.17872 14.1011C4.87487 14.3743 4.47854 14.3327 4.28698 14.0179C4.16148 13.816 4.20771 13.6318 4.43891 13.418C4.99377 12.919 5.54863 12.4201 6.1035 11.9211C6.56588 11.5053 7.02166 11.0895 7.48405 10.6796C7.7945 10.4005 8.07194 10.4005 8.38239 10.6737C8.93065 11.1667 9.47891 11.6597 10.0073 12.1349C10.9784 11.2618 11.9428 10.3945 12.9072 9.52134C12.6826 9.52134 12.425 9.52728 12.1673 9.52134C11.8965 9.50946 11.6984 9.36096 11.6521 9.14712C11.6059 8.93328 11.6984 8.72538 11.9031 8.63628C12.0022 8.5947 12.1211 8.565 12.2334 8.565C12.894 8.55906 13.5545 8.55906 14.2151 8.565C14.618 8.57094 14.8162 8.76102 14.8162 9.12336C14.8162 9.71142 14.8162 10.2935 14.8162 10.8816C14.8162 11.2142 14.5982 11.434 14.2811 11.434C13.9773 11.434 13.7659 11.2202 13.7593 10.8935C13.7527 10.6915 13.7527 10.4955 13.7527 10.2935C13.7527 10.2817 13.7395 10.2698 13.6602 10.1629C13.6073 10.2579 13.5809 10.347 13.5215 10.4005C12.5307 11.2974 11.5398 12.1884 10.549 13.0794C10.1791 13.412 9.94129 13.412 9.56478 13.0794C9.02973 12.5983 8.49469 12.1171 7.92001 11.6063Z" fill="#A9A9B0"/>
<path d="M13.7659 14.4995C13.7659 13.8045 13.7593 13.1036 13.7659 12.4086C13.7725 12.0106 14.1688 11.7789 14.5255 11.9512C14.7171 12.0403 14.8162 12.1888 14.8162 12.3848C14.8162 13.8104 14.8228 15.236 14.8162 16.6616C14.8162 16.9467 14.5718 17.1487 14.2811 17.1428C13.9971 17.1368 13.7725 16.9408 13.7725 16.6676C13.7593 15.9429 13.7659 15.2241 13.7659 14.4995Z" fill="#A9A9B0"/>
<path d="M7.40477 14.9033C7.40477 14.3152 7.39816 13.7331 7.40477 13.145C7.40477 12.8302 7.60293 12.6282 7.90018 12.6104C8.21724 12.5926 8.45504 12.8064 8.46165 13.1331C8.46825 13.5133 8.46165 13.8875 8.46165 14.2677C8.46165 15.0458 8.46165 15.824 8.46165 16.6021C8.46165 16.9288 8.2833 17.1308 7.98605 17.1545C7.64917 17.1842 7.40477 16.9763 7.39816 16.6377C7.40477 16.0616 7.40477 15.4854 7.40477 14.9033Z" fill="#A9A9B0"/>
<path d="M12.6958 15.0168C12.6958 15.5455 12.6958 16.0682 12.6958 16.5969C12.6958 16.9236 12.491 17.1315 12.1806 17.1374C11.8635 17.1433 11.6455 16.9236 11.6455 16.5909C11.6455 15.5217 11.6455 14.4525 11.6455 13.3893C11.6455 13.0626 11.8503 12.8547 12.1608 12.8488C12.4778 12.8428 12.6958 13.0626 12.6958 13.3952C12.7024 13.9358 12.6958 14.4763 12.6958 15.0168Z" fill="#A9A9B0"/>
<path d="M10.582 15.4798C10.582 15.8422 10.582 16.2045 10.582 16.5728C10.5754 16.9292 10.364 17.149 10.047 17.143C9.7299 17.1371 9.52513 16.9173 9.52513 16.5787C9.52513 15.8362 9.52513 15.0937 9.52513 14.3512C9.52513 14.0245 9.7299 13.8166 10.0404 13.8107C10.3706 13.8047 10.5754 14.0008 10.582 14.3453C10.5886 14.7195 10.582 15.0997 10.582 15.4798Z" fill="#A9A9B0"/>
<path d="M5.2976 15.8185C5.2976 15.5512 5.29099 15.2839 5.2976 15.0166C5.3042 14.7077 5.52219 14.5176 5.83264 14.5236C6.12989 14.5295 6.34787 14.7255 6.34787 15.0166C6.35448 15.5571 6.35448 16.0977 6.34787 16.6382C6.34127 16.9352 6.11007 17.1431 5.81283 17.1372C5.52219 17.1312 5.31081 16.9293 5.2976 16.6382C5.2976 16.6263 5.2976 16.6085 5.2976 16.5966C5.2976 16.3353 5.2976 16.0798 5.2976 15.8185Z" fill="#A9A9B0"/>
<path d="M4.22754 16.43C4.22754 16.5251 4.23414 16.626 4.22754 16.7211C4.20111 16.9587 3.96331 17.1428 3.7057 17.1369C3.44808 17.1309 3.21689 16.9587 3.19708 16.733C3.17726 16.5251 3.17726 15.8776 3.19708 15.6697C3.21689 15.4321 3.4679 15.2598 3.73212 15.2658C3.99634 15.2717 4.20772 15.444 4.23414 15.6816C4.23414 15.7826 4.22754 16.329 4.22754 16.43Z" fill="#A9A9B0"/>
</g>
<defs>
<clipPath id="clip0_10680_3510">
<rect width="18" height="20" fill="white"/>
</clipPath>
</defs>
</svg>
