<svg width="20" height="20" viewBox="0 0 20 20" fill="none" xmlns="http://www.w3.org/2000/svg">
<path d="M9.98776 1.63574C10.4825 1.63578 10.9542 1.74872 11.2993 1.94922L11.3003 1.9502L15.8803 4.58887C16.8366 5.23376 17.2175 5.53048 17.4096 5.86133C17.5926 6.17649 17.6333 6.57478 17.6333 7.5918V12.4004C17.6333 13.4188 17.5943 13.8177 17.4155 14.1318C17.2295 14.4585 16.861 14.7513 15.9233 15.3867L11.3247 18.042C10.9663 18.2474 10.4907 18.3583 10.0005 18.3584C9.50857 18.3584 9.03379 18.2473 8.686 18.0439L8.68307 18.042L4.11374 15.4082C3.16152 14.7659 2.78207 14.4689 2.5903 14.1387C2.40744 13.8235 2.36667 13.425 2.36667 12.4082V7.5918C2.36667 6.57345 2.4056 6.17449 2.58444 5.86035C2.7706 5.53343 3.13922 5.24001 4.07858 4.60352L8.67526 1.9502L8.67624 1.94922C9.02141 1.74872 9.49294 1.63574 9.98776 1.63574ZM10.0005 1.8916C9.65129 1.8916 9.26978 1.94832 8.94772 2.09863L8.81686 2.16699L4.23288 4.81738L4.21823 4.82617L4.20358 4.83594C3.87065 5.06062 3.59747 5.24454 3.38815 5.41016C3.17565 5.57833 2.99301 5.75509 2.86276 5.97949C2.72949 6.20924 2.67419 6.44918 2.6489 6.70508C2.62473 6.94989 2.62546 7.24557 2.62546 7.5918V12.4004C2.62546 12.7466 2.62404 13.0431 2.6489 13.2891C2.67494 13.5467 2.73172 13.7874 2.86765 14.0186C2.99999 14.2436 3.1854 14.4217 3.40182 14.5928C3.61546 14.7616 3.89513 14.9495 4.23679 15.1807L4.25143 15.1914L4.26706 15.2002L8.81686 17.8252C9.16281 18.0246 9.60383 18.1045 10.0044 18.1045C10.4047 18.1045 10.845 18.0244 11.1909 17.8252H11.1919L15.7749 15.1748L15.7905 15.166L15.8061 15.1553C16.1369 14.9306 16.4086 14.7467 16.6167 14.5811C16.8281 14.4127 17.0097 14.2361 17.1391 14.0117C17.2715 13.7822 17.3259 13.5427 17.351 13.2871C17.3751 13.0424 17.3755 12.7468 17.3755 12.4004V7.5918C17.3755 7.24558 17.3759 6.94907 17.351 6.70312C17.325 6.44548 17.2682 6.20479 17.1323 5.97363C16.9999 5.74861 16.8145 5.57046 16.5981 5.39941C16.3845 5.23056 16.1048 5.04269 15.7632 4.81152L15.7485 4.80078L15.7329 4.79199L11.1831 2.16699H11.1821C10.8361 1.96558 10.3978 1.89166 10.0005 1.8916Z" stroke="#A9A9B0"/>
<path d="M10 7.375C11.4489 7.375 12.625 8.55114 12.625 10C12.625 11.4489 11.4489 12.625 10 12.625C8.55114 12.625 7.375 11.4489 7.375 10C7.375 8.55114 8.55114 7.375 10 7.375ZM10 7.625C8.69052 7.625 7.625 8.69052 7.625 10C7.625 11.3095 8.69052 12.375 10 12.375C11.3095 12.375 12.375 11.3095 12.375 10C12.375 8.69052 11.3095 7.625 10 7.625Z" fill="#292D32" stroke="#A9A9B0"/>
</svg>
